<mxfile host="app.diagrams.net" modified="2023-04-14T03:29:12.222Z" agent="Mozilla/5.0 (Windows NT 10.0; Win64; x64) AppleWebKit/537.36 (KHTML, like Gecko) Chrome/107.0.0.0 Safari/537.36" version="21.1.6" etag="XzS7v1l7cSqoe3Wq3kyr" type="github">
  <diagram name="第 1 页" id="hV0WZtHfLau5pmglbQo7">
    <mxGraphModel>
      <root>
        <mxCell id="0" />
        <mxCell id="1" parent="0" />
      </root>
    </mxGraphModel>
  </diagram>
</mxfile>
